<svg xmlns="http://www.w3.org/2000/svg" viewBox="0 0 64 64" role="img" aria-label="Веди favicon">
  <rect width="64" height="64" fill="#ffffff"/>
  <g fill="#245fbe">
    <rect x="4" y="37" width="3" height="3"/>
    <rect x="8" y="13" width="3" height="3"/>
    <rect x="13" y="26" width="3" height="3"/>
    <rect x="17" y="8" width="3" height="3"/>
    <rect x="18" y="37" width="3" height="3"/>
    <rect x="20" y="49" width="3" height="3"/>
    <rect x="24" y="15" width="5" height="5"/>
    <rect x="25" y="26" width="6" height="6"/>
    <rect x="27" y="40" width="4" height="4"/>
    <rect x="24" y="56" width="2" height="2"/>
    <path d="M21 8h13l16 24-16 24H21l17-24L21 8z"/>
    <path d="M39 8h13l16 24-16 24H39l17-24L39 8z" transform="translate(-6 0)"/>
  </g>
</svg>
